<?xml version="1.0" encoding="utf-8"?>
<!-- Generator: Adobe Illustrator 24.1.0, SVG Export Plug-In . SVG Version: 6.00 Build 0)  -->
<svg version="1.1" id="Layer_1" xmlns="http://www.w3.org/2000/svg" xmlns:xlink="http://www.w3.org/1999/xlink" x="0px" y="0px"
	 viewBox="0 0 552.7 523.2" style="enable-background:new 0 0 552.7 523.2;" xml:space="preserve">
<style type="text/css">
	.st0{fill:#FFFFFF;}
	.st1{fill:#0371A4;}
	.st2{fill:#10B1A3;}
	.st3{fill:none;stroke:#13B1A3;stroke-width:6;stroke-miterlimit:10;}
	.st4{fill:#13B1A3;}
	.st5{fill:#575757;}
	.st6{fill:#C4C7CC;}
	.st7{fill:#F4BA49;}
	.st8{fill:#D68947;}
	.st9{fill:#EDBA1A;}
	.st10{fill:#F7F6DD;}
</style>
<path class="st0" d="M331.8,0.4C505.5-9.5,573.8,152.7,539.2,254c-41.4,121.4-179.4,207.7-322.9,198.8
	c-86.3-5.3-140-57.4-136.3-137.4c4.1-90.6,41.1-173.4,90.3-251.1C204.7,10.1,266.8-0.3,331.8,0.4z"/>
<ellipse class="st1" cx="313.9" cy="494.5" rx="139.9" ry="18.3"/>
<g>
	<path class="st2" d="M166.8,452.4c4.8-3.3,10.3-5.3,15.7-7.4c5.7-2.1,11.4-4.2,16.4-7.8c6.6-4.6,9.2-11,8.3-18.9
		c-0.2-1.7-0.5-3.5-0.8-5.2c-1.8-10.8-2.8-21.6-3.7-32.5c-1.7-20.4-2.3-40.9-1.6-61.4c1.2-33.5,5.2-66.6,16-98.6
		c6.4-19,15.1-36.9,27.6-52.8c19.5-24.7,44.9-39.5,75.9-45c8.9-1.6,17.9-2.5,27.7-2.4c-4.4,5.7-9.8,10.3-12.3,17.6
		c3.8-0.7,7.1-1.3,10.3-1.8c16.3-2.3,32.6-2.4,48.6,2.1c8.4,2.3,16.2,5.9,23.2,11.2c0.9,0.6,1.7,1.3,2.5,2c0.2,0.2,0.2,0.5,0.4,1
		c-7.4-1.2-14.7-2-21.8,0.6c-0.3,1.3,0.9,1.5,1.6,2.1c4.6,3.9,8.1,8.7,11,13.9c6.3,11.3,10.1,23.5,12.9,36c4,18.2,5.9,36.7,6.8,55.3
		c0.7,13.6,0.8,27.2,0.4,40.9c-0.5,19.5-1.7,39-3.6,58.5c-1.5,15.4-3.2,30.8-5.1,46.2c-0.3,2.3-0.7,4.5-1.1,6.8
		c-1.6,11.5,3.6,20.1,14.6,23.8c6.9,2.3,13.9,4.5,20.3,7.9c3.6,1.9,6.9,4.2,8.8,8c0.4,2.8-0.2,5.3-2.1,7.5c-1.7,2-3.9,3.3-6.2,4.5
		c-6.9,3.3-14.2,4.2-21.7,4c-11.3-0.3-22.1-3.2-32.6-7.3c-13-5-26.1-9.5-39.8-12.3c-4.8-1-9.5-1.9-14.4-1.5c-1.9,0.2-4.5,0.1-5,2.6
		c-0.5,2.6,1.8,3.7,3.7,4.7c3.9,2,8.1,3,12.2,4.1c7,1.8,14.3,3,21.1,5.5c2.2,0.8,5.3,1.5,5.3,4.2c0.1,3.1-3.2,3.7-5.5,4.4
		c-5.3,1.7-10.8,2.2-16.4,2.4c-17.9,0.4-35-2.2-50.5-11.8c-2.1-1.3-4.3-2.3-6.5-3.3c-7.4-3.2-15-5.4-23.1-5.1
		c-8,0.3-15.5,2.4-22.5,5.9c-12.2,6-25,10.1-38.2,13.1c-13.6,3.1-27.3,5.3-41.3,4.2c-4.7-0.4-9.4-1.3-13.6-3.6
		c-4.7-2.7-7.1-6.6-7.1-12.2C161.8,458.2,164.1,455.3,166.8,452.4z"/>
	<g>
		<circle cx="256.8" cy="251.5" r="8.3"/>
		<circle cx="384.4" cy="251.5" r="8.3"/>
	</g>
	<path d="M333.8,291.5c2.1-1.4,2.7-3.5,1.7-5.3c-1-1.8-3-2.4-5-1.5c-14.9,6.6-29.3,5.2-43.4-2.5c-2.8-1.5-4.9-1.3-6.1,0.8
		c-1.1,2-0.4,4.2,2.2,5.6c15.9,8.7,32.3,10.4,49.3,3.5C333,291.9,333.5,291.6,333.8,291.5z"/>
</g>
<line class="st3" x1="409.7" y1="274.2" x2="485.5" y2="406.7"/>
<g>
	<path class="st4" d="M507.6,403.9l-17.9-34.7c-1.5-2.8-5-4-7.8-2.5l-24.3,12.6c-2.8,1.5-4,5-2.5,7.8l17.9,34.7c1.5,2.8,5,4,7.8,2.5
		l24.3-12.6C507.9,410.2,509.1,406.7,507.6,403.9z"/>
	<path class="st4" d="M495.8,443.7l-18.7-36.2c-0.4-0.7-1.2-1-1.9-0.6l-6.6,3.4c-0.7,0.4-1,1.2-0.6,1.9l18.7,36.2
		c0.4,0.7,1.2,1,1.9,0.6l6.6-3.4C495.9,445.2,496.2,444.3,495.8,443.7z"/>
	<path class="st4" d="M508.2,437.3L489.5,401c-0.4-0.7-1.2-1-1.9-0.6l-6.6,3.4c-0.7,0.4-1,1.2-0.6,1.9L499,442
		c0.4,0.7,1.2,1,1.9,0.6l6.6-3.4C508.3,438.8,508.6,437.9,508.2,437.3z"/>
	<path class="st4" d="M521.3,430.5l-18.7-36.2c-0.4-0.7-1.2-1-1.9-0.6l-6.6,3.4c-0.7,0.4-1,1.2-0.6,1.9l18.7,36.2
		c0.4,0.7,1.2,1,1.9,0.6l6.6-3.4C521.4,432,521.7,431.2,521.3,430.5z"/>
</g>
<line class="st3" x1="215.8" y1="287.2" x2="95.8" y2="192.8"/>
<g>
	<path class="st5" d="M27,69.9l-25.9-22c-1.4-1.2-1.6-2.9-0.4-4.4s2.9-1.6,4.4-0.4l25.9,22c1.4,1.2,1.6,2.9,0.4,4.4
		C30.2,71,28.5,71.1,27,69.9"/>
	<path class="st6" d="M39.9,93L28.1,83c-4-3.4-4.5-9.1-1.1-13.1l4-4.7c3.4-4,9.1-4.5,13.1-1.1l11.8,10L39.9,93z"/>
	<path class="st7" d="M39.9,93c-3.4,4-3.3,10.1,0.1,14.2l20.5,23.5c10.6,14.7,32.5,32.9,48.4,40.8c9.1,4.5,20.1,2.5,26.7-5.2l8-9.4
		c6.6-7.8,7-18.8,1.1-27c-10.1-13.9-28.3-30.6-43.5-39c-4.4-2.5-8.7-5-13.3-7.7l-18-11.2c-4.6-2.7-10.5-2-14.1,2.2L39.9,93z"/>
	<g>
		<path class="st5" d="M83.1,80.3l-13.4-8.1c-4.6-2.7-10.5-2-14.1,2.2l-16,18.8c-3.4,4-3.3,10.1,0.1,14.2l10.2,11.9L83.1,80.3z"/>
		<path class="st5" d="M129.1,140.5l-14.1-12c-1.4-1.2-1.6-2.9-0.4-4.4s2.9-1.6,4.4-0.4l14.1,12c1.4,1.2,1.6,2.9,0.4,4.4
			C132.3,141.6,130.6,141.7,129.1,140.5"/>
		<path class="st5" d="M121.1,150L107,138c-1.4-1.2-1.6-2.9-0.4-4.4c1.2-1.4,2.9-1.6,4.4-0.4l14.1,12c1.4,1.2,1.6,2.9,0.4,4.4
			S122.6,151.2,121.1,150"/>
	</g>
	<g>
		<path class="st6" d="M28.6,196.9l26.1-2.1l21.2,18l-7.3,18.1L28.6,196.9z"/>
		<path class="st6" d="M75.6,147.3l-12,22.7l7.1,6l16-18.8C82.9,153.9,79.1,150.7,75.6,147.3"/>
	</g>
	<g>
		<path class="st5" d="M75.8,212.8l16-18.8l16.8-22.6c-6.8-3.4-14.3-8.5-21.8-14.4l-32,37.6l21.2,18L75.8,212.8z"/>
		<path class="st5" d="M56.2,240.6l-35.3-30c-1.4-1.2-1.6-2.9-0.4-4.4l8-9.4l40,34l-8,9.4C59.3,241.7,57.6,241.8,56.2,240.6"/>
	</g>
</g>
<g>
	<path class="st4" d="M76.4,203.7l29.6,25.5c2.4,2.1,6.1,1.8,8.2-0.6l17.8-20.8c2.1-2.4,1.8-6.1-0.6-8.2l-29.6-25.5
		c-2.4-2.1-6.1-1.8-8.2,0.6l-17.8,20.8C73.7,198,73.9,201.7,76.4,203.7z"/>
	<path class="st4" d="M72.4,162.4l30.9,26.6c0.6,0.5,1.5,0.4,2-0.2l4.9-5.7c0.5-0.6,0.4-1.5-0.2-2l-30.9-26.6
		c-0.6-0.5-1.5-0.4-2,0.2l-4.9,5.7C71.7,161,71.8,161.9,72.4,162.4z"/>
	<path class="st4" d="M63.3,173l30.9,26.6c0.6,0.5,1.5,0.4,2-0.2l4.9-5.7c0.5-0.6,0.4-1.5-0.2-2L70,165.2c-0.6-0.5-1.5-0.4-2,0.2
		l-4.9,5.7C62.6,171.6,62.7,172.5,63.3,173z"/>
	<path class="st4" d="M53.6,184.2l30.9,26.6c0.6,0.5,1.5,0.4,2-0.2l4.9-5.7c0.5-0.6,0.4-1.5-0.2-2l-30.9-26.6
		c-0.6-0.5-1.5-0.4-2,0.2l-4.9,5.7C53,182.8,53.1,183.7,53.6,184.2z"/>
</g>
<path class="st8" d="M151.9,523.2H55.8c-4.8,0-8.5-3.7-8.5-8.5s3.7-8.5,8.5-8.5h96.1c4.8,0,8.5,3.7,8.5,8.5S156.7,523.2,151.9,523.2
	"/>
<g>
	<polygon class="st9" points="149.1,506.2 127.9,415.7 103.9,415.7 79.5,415.7 58.6,506.2 	"/>
	<path class="st9" d="M121.4,387.5l-5.7-24c-0.6-2.5-2.8-4.2-5.4-4.2H96.8c-2.5,0-4.8,1.7-5.4,4.2l-5.7,24h18.1L121.4,387.5
		L121.4,387.5z"/>
</g>
<g>
	<polygon class="st10" points="127.9,415.7 121.4,387.5 103.9,387.5 85.8,387.5 79.5,415.7 103.9,415.7 	"/>
	<path class="st10" d="M103.9,446.8H72.2l-6.5,28.3h38.2H142l-6.5-28.3H103.9z"/>
</g>
</svg>
