<?xml version="1.0" encoding="utf-8"?>
<!-- Generator: Adobe Illustrator 24.1.0, SVG Export Plug-In . SVG Version: 6.00 Build 0)  -->
<svg version="1.1" id="Layer_1" xmlns="http://www.w3.org/2000/svg" xmlns:xlink="http://www.w3.org/1999/xlink" x="0px" y="0px"
	 viewBox="0 0 756.3 775" style="enable-background:new 0 0 756.3 775;" xml:space="preserve">
<style type="text/css">
	.st0{fill:#FFFFFF;}
	.st1{fill:#0371A4;}
	.st2{fill:#ED6D40;}
	.st3{fill:#1D1D1B;}
	.st4{fill:#ED6D41;}
	.st5{fill:#295781;}
	.st6{fill:#F0C400;}
	.st7{fill:#A1CAD4;}
	.st8{fill:#85B6CC;}
	.st9{fill:#D3AA02;}
</style>
<path class="st0" d="M701.1,361.7c-6.7,82.3-36.5,168.3-104,241.8c-132.3,144-417.6,98.6-504.4-83
	c-65.8-137.6-53.3-277.9,18.5-411.7C160.2,17.2,255.7-15.8,372.8,6.9C554.6,42.1,702,197,701.1,361.7z"/>
<ellipse class="st1" cx="384.8" cy="751.1" rx="209.4" ry="27.4"/>
<path class="st2" d="M230,712.8c-0.3-3.6-0.8-7.2-0.8-10.8c0-12.1-2.2-24.1-3-36.1c-0.4-6.4-1.3-12.8-1.7-19.3
	c-0.9-17.1-2.1-34.2-3-51.3c-0.7-15.5-0.5-31.1-1.3-46.6c-0.6-11.7-0.7-23.4-0.4-35.1c0.6-24.6,1-49.2,2.5-73.8
	c2.7-43.1,7.6-85.9,16.6-128.2c6.1-28.5,18.1-53.8,39.9-73.9c16-14.8,35-24.6,55.7-30.9c17.1-5.1,34.6-7.7,52.4-8.8
	c31.5-2.1,62.5,1.5,93.3,7.7c1.6,0.3,3.1,0.9,4.5,1.7c-11.8,0.1-23.5,1.5-35,4.3c-11.3,2.7-22.3,6.5-32.5,12.5
	c7.7,0.7,15.2,0.9,22.7,1.9c19.8,2.8,38.1,8.8,53.7,21.8c13.2,11,21.9,25.3,28,41.1c6.5,16.8,10,34.4,12.3,52.3
	c4,31.3,4.7,62.7,5,94.2c0.3,39.8,0.5,79.5,1.5,119.3c0.7,28.1,0.8,56.1,0.4,84.2c-0.3,22.8-1.5,45.5-5,68.1c-0.6,2.5-1.2,5.1-2,7.5
	c-2,6.3-3.7,12.8-7.4,18.2c-5.5,8.4-16.8,10.8-25.3,5.3c-2.4-1.6-4.5-3.7-5.9-6.3c-2.6-4.1-4.4-8.6-5.4-13.3c-0.8-5.1-2-10.2-3-15.3
	c-0.3-6.1-0.6-12.3-0.9-18.5c-67.8,11.1-135.3,7.8-203.3,4.1c0.6,4.4,1.1,8.1,1.6,11.9c-0.1,1.8-0.3,3.6-0.2,5.4
	c0.3,7-0.8,14-3.4,20.5c-5.4,14.2-25.7,20.8-37.9,11.6c-6-4.6-10.2-10.5-11.3-18.3C231.2,717.5,230.5,715.2,230,712.8z"/>
<circle class="st3" cx="284.7" cy="407.6" r="12.4"/>
<circle class="st3" cx="475.7" cy="407.6" r="12.4"/>
<path d="M431,437.5c3.2,2.1,4,5.2,2.5,7.9s-4.4,3.6-7.6,2.2c-22.3-9.9-43.8-7.7-64.9,3.8c-4.1,2.3-7.3,1.9-9.1-1.2s-0.7-6.2,3.2-8.4
	c23.8-13.1,48.3-15.5,73.8-5.2C429.8,436.9,430.6,437.3,431,437.5z"/>
<rect x="157.4" y="333.5" transform="matrix(0.4357 -0.9001 0.9001 0.4357 -309.0966 402.4384)" class="st4" width="18" height="228.5"/>
<path class="st4" d="M62.9,363.5l59,25.5c2.9,1.3,4.3,4.7,3,7.6l-18.5,42.9c-1.3,2.9-4.7,4.3-7.6,3l-59-25.5c-2.9-1.3-4.3-4.7-3-7.6
	l18.5-42.9C56.5,363.6,59.9,362.3,62.9,363.5z"/>
<path class="st4" d="M6.7,386.1L64,410.9c0.7,0.3,1,1.1,0.7,1.9l-5,11.6c-0.3,0.7-1.1,1-1.9,0.7L0.6,400.2c-0.7-0.3-1-1.1-0.7-1.9
	l5-11.6C5.1,386.1,6,385.8,6.7,386.1z"/>
<path class="st4" d="M15.1,366.7l57.3,24.8c0.7,0.3,1,1.1,0.7,1.9l-5,11.6c-0.3,0.7-1.1,1-1.9,0.7L9,380.9c-0.7-0.3-1-1.1-0.7-1.9
	l5-11.6C13.6,366.7,14.4,366.4,15.1,366.7z"/>
<path class="st4" d="M23.8,346.6l57.3,24.8c0.7,0.3,1,1.1,0.7,1.9l-5,11.6c-0.3,0.7-1.1,1-1.9,0.7l-57.3-24.8
	c-0.7-0.3-1-1.1-0.7-1.9l5-11.6C22.2,346.6,23,346.3,23.8,346.6z"/>
<rect x="479.6" y="439.9" transform="matrix(0.8442 -0.536 0.536 0.8442 -148.1117 388.2039)" class="st4" width="228.5" height="18"/>
<path class="st4" d="M719.9,405.3L667.2,442c-2.6,1.8-6.2,1.2-8.1-1.4l-26.7-38.4c-1.8-2.6-1.2-6.2,1.4-8.1l52.7-36.7
	c2.6-1.8,6.2-1.2,8.1,1.4l26.7,38.4C723.2,399.9,722.5,403.5,719.9,405.3z"/>
<path class="st4" d="M730.3,345.7l-51.2,35.7c-0.6,0.4-1.5,0.3-2-0.4l-7.2-10.3c-0.4-0.6-0.3-1.5,0.4-2l51.2-35.7
	c0.6-0.4,1.5-0.3,2,0.4l7.2,10.3C731.1,344.4,731,345.2,730.3,345.7z"/>
<path class="st4" d="M742.2,362.7L691,398.4c-0.6,0.4-1.5,0.3-2-0.4l-7.2-10.3c-0.4-0.6-0.3-1.5,0.4-2l51.2-35.7
	c0.6-0.4,1.5-0.3,2,0.4l7.2,10.3C743,361.4,742.8,362.3,742.2,362.7z"/>
<path class="st4" d="M754.9,381l-51.2,35.7c-0.6,0.4-1.5,0.3-2-0.4l-7.2-10.3c-0.4-0.6-0.3-1.5,0.4-2l51.2-35.7
	c0.6-0.4,1.5-0.3,2,0.4l7.2,10.3C755.7,379.6,755.5,380.5,754.9,381z"/>
<path id="Shape" class="st5" d="M59.9,450.2l36.5-85.4l-25.5-10.9l-36.5,85.4c-1.5,3.4-1.5,7.2-0.1,10.6c2.9,7.1,11,10.6,18.1,7.7
	C55.8,456.3,58.5,453.6,59.9,450.2L59.9,450.2z"/>
<path id="Rectangle-path" class="st6" d="M61.7,375.3l25.5,10.9l-10.9,25.5l-25.5-10.9L61.7,375.3z"/>
<circle id="Oval" class="st6" cx="127" cy="258" r="111.2"/>
<path id="Shape-2" class="st7" d="M218.6,271.7c-33.8-34.6-89.3-76.6-159.4-76.8c34.9-37.4,93.5-39.5,130.9-4.6
	C212.4,211,223.1,241.5,218.6,271.7z"/>
<path id="Shape-3" class="st8" d="M161.5,344C114,363.1,60,340,41,292.5c-13.4-33.3-6.3-71.4,18.2-97.7
	c70.2,0.2,125.6,42.3,159.4,76.8C213.7,304.2,192,331.8,161.5,344L161.5,344z"/>
<path id="Shape-4" class="st9" d="M36.7,294.2c-20-49.9,4.2-106.5,54.1-126.5s106.5,4.2,126.5,54.1c20,49.9-4.2,106.5-54.1,126.5
	C113.3,368.3,56.7,344.1,36.7,294.2z M208.7,225.2c-18.1-45.1-69.4-67-114.5-48.9c-45.1,18.1-67,69.4-48.9,114.5
	c18.1,45.1,69.3,67,114.4,48.9C204.9,321.6,226.8,270.4,208.7,225.2C208.7,225.3,208.6,225.2,208.7,225.2L208.7,225.2z"/>
<path id="Shape-5" class="st0" d="M114.2,287.8c-4.7-2-6.9-7.5-4.9-12.2l5.6-13.1c2.7-6.4,9.8-9.8,16.5-7.9
	c12.3,3.5,25.1-3.5,28.7-15.8c3.5-12.3-3.5-25.1-15.8-28.7c-11.2-3.2-23.1,2.4-27.7,13.2c-2.3,4.6-7.8,6.5-12.4,4.2
	c-4.2-2.1-6.2-7-4.6-11.5c9.1-21.2,33.6-31,54.7-21.9c21.2,9.1,31,33.6,21.9,54.7c-7.7,17.9-26.7,28.1-45.8,24.6l-4,9.5
	C124.4,287.6,118.9,289.8,114.2,287.8z"/>
<circle id="Oval-2" class="st0" cx="103.3" cy="313.4" r="9.3"/>
</svg>
