<?xml version="1.0" encoding="utf-8"?>
<!-- Generator: Adobe Illustrator 24.1.0, SVG Export Plug-In . SVG Version: 6.00 Build 0)  -->
<svg version="1.1" id="Layer_1" xmlns="http://www.w3.org/2000/svg" xmlns:xlink="http://www.w3.org/1999/xlink" x="0px" y="0px"
	 viewBox="0 0 512.5 554.6" style="enable-background:new 0 0 512.5 554.6;" xml:space="preserve">
<style type="text/css">
	.st0{fill:#FFFFFF;}
	.st1{fill:#0371A4;}
	.st2{fill:#ED6D40;}
	.st3{fill:#EDDCC7;}
	.st4{fill:#D85B4B;}
	.st5{fill:#F39D22;}
	.st6{fill:#D7C5B1;}
	.st7{fill:#A44841;}
	.st8{fill:#E18C25;}
	.st9{fill:#5F5F5F;}
	.st10{fill:none;stroke:#ED6D41;stroke-width:6;stroke-miterlimit:10;}
	.st11{fill:#ED6D41;}
	.st12{fill:#F0C418;}
	.st13{fill:#F39D20;}
	.st14{fill:#32A9CC;}
	.st15{fill:#557680;}
	.st16{fill:#364A5E;}
	.st17{fill:#415D6D;}
	.st18{fill:#F9EAB0;}
	.st19{fill:#FAC276;}
	.st20{fill:#E57E25;}
	.st21{fill:#ECF0F1;}
	.st22{clip-path:url(#SVGID_2_);}
</style>
<path class="st0" d="M481.7,257.1c-4.8,58.5-26,119.6-73.9,171.8c-94,102.4-296.8,70.1-358.5-59C2.4,272.1,11.3,172.4,62.3,77.3
	c34.9-65,102.7-88.5,186-72.4C377.6,29.9,482.3,140,481.7,257.1z"/>
<ellipse class="st1" cx="253.3" cy="533.8" rx="148.8" ry="19.5"/>
<g>
	<path class="st2" d="M143.3,506.6c-0.2-2.6-0.6-5.1-0.6-7.7c0-8.6-1.6-17.1-2.1-25.7c-0.3-4.6-0.9-9.1-1.2-13.7
		c-0.7-12.2-1.5-24.3-2.1-36.5c-0.5-11-0.3-22.1-0.9-33.1c-0.4-8.3-0.5-16.6-0.3-24.9c0.5-17.5,0.7-35,1.8-52.4
		c1.9-30.6,5.4-61.1,11.8-91.1c4.3-20.3,12.9-38.2,28.3-52.5c11.4-10.5,24.8-17.5,39.6-21.9c12.1-3.7,24.6-5.4,37.3-6.3
		c22.4-1.5,44.4,1.1,66.3,5.4c1.1,0.2,2.1,0.6,3.2,1.2c-8.5,0-16.7,1.1-24.9,3c-8.1,1.9-15.9,4.6-23.1,8.9
		c5.4,0.5,10.8,0.6,16.1,1.4c14,2,27.1,6.3,38.2,15.5c9.4,7.9,15.5,18,19.9,29.2c4.6,12,7.1,24.5,8.7,37.2c2.8,22.2,3.3,44.6,3.5,67
		c0.2,28.3,0.4,56.5,1.1,84.8c0.5,19.9,0.6,39.9,0.3,59.8c-0.3,16.2-1.1,32.4-3.6,48.4c-0.5,1.8-0.8,3.6-1.4,5.4
		c-1.4,4.5-2.6,9.1-5.3,13c-5.6,8.2-17.2,7.7-22.2-0.7c-1.7-2.9-3.2-6-3.8-9.5c-0.6-3.6-1.4-7.2-2.2-10.9c-0.2-4.4-0.4-8.7-0.6-13.2
		c-48.2,7.9-96.2,5.6-144.5,2.9c0.4,3.1,0.8,5.8,1.1,8.4c-0.1,1.3-0.2,2.6-0.2,3.8c0.3,5-0.6,9.8-2.4,14.6
		c-3.8,10.1-18.3,14.8-26.9,8.2c-4.3-3.2-7.3-7.5-8-13C144.2,509.9,143.7,508.3,143.3,506.6z"/>
	<g>
		<circle cx="182.2" cy="289.7" r="8.8"/>
		<circle cx="317.9" cy="289.7" r="8.8"/>
	</g>
	<path d="M231.7,321.7c-2.2-1.5-2.8-3.7-1.8-5.6c1.1-2,3.2-2.5,5.4-1.6c15.8,7.1,31.2,5.5,46.1-2.7c2.9-1.6,5.2-1.4,6.5,0.9
		c1.2,2.1,0.5,4.4-2.3,6c-16.9,9.3-34.4,11-52.4,3.7C232.6,322.1,232,321.8,231.7,321.7z"/>
</g>
<g>
	<polygon class="st3" points="364.5,492.6 364.4,492.7 344.9,537.7 379.1,512.1 	"/>
	<path class="st4" d="M501.1,420.9l-6.9-9.2c-4.3-5.7-12.3-6.9-18-2.6l-26.3,19.7l14.6,19.5L501.1,420.9z"/>
	
		<rect x="361.2" y="458.3" transform="matrix(0.8009 -0.5988 0.5988 0.8009 -199.1793 341.8711)" class="st5" width="106.6" height="24.3"/>
	<polygon class="st6" points="395.5,534.3 395.6,534.2 379.1,512.1 344.9,537.7 343.6,540.7 	"/>
	<path class="st7" d="M481,470.4l26.3-19.7c5.7-4.3,6.9-12.3,2.6-18l-8.8-11.8l-36.7,27.4L481,470.4z"/>
	
		<rect x="376.7" y="477.5" transform="matrix(0.8009 -0.5988 0.5988 0.8009 -208.5433 355.3241)" class="st8" width="106.6" height="27.6"/>
	<path class="st9" d="M337.5,551c-1.6-0.2-3.2-1.1-4.3-2.5c-2.1-2.9-1.6-6.9,1.3-9.1l16.2-12.1c2.9-2.1,6.9-1.6,9.1,1.3
		c2.1,2.9,1.6,6.9-1.3,9.1l-16.2,12.1C340.9,550.8,339.1,551.2,337.5,551z"/>
</g>
<line class="st10" x1="354.8" y1="309.4" x2="414.5" y2="460.4"/>
<g>
	<path class="st11" d="M397.7,477.3l-17.2-38.6c-1.3-2.9,0-6.4,2.9-7.7l27.3-12.2c2.9-1.3,6.4,0,7.7,2.9l17.2,38.6
		c1.3,2.9,0,6.4-2.9,7.7l-27.3,12.2C402.4,481.5,399,480.2,397.7,477.3z"/>
	<path class="st11" d="M438.4,493.6l-17.7-39.8c-0.3-0.7,0-1.5,0.7-1.9l7.4-3.3c0.7-0.3,1.5,0,1.9,0.7l17.7,39.8
		c0.3,0.7,0,1.5-0.7,1.9l-7.4,3.3C439.6,494.7,438.7,494.3,438.4,493.6z"/>
	<path class="st11" d="M424.9,499.6l-17.7-39.8c-0.3-0.7,0-1.5,0.7-1.9l7.4-3.3c0.7-0.3,1.5,0,1.9,0.7l17.7,39.8
		c0.3,0.7,0,1.5-0.7,1.9l-7.4,3.3C426.1,500.7,425.2,500.4,424.9,499.6z"/>
	<path class="st11" d="M410.5,506.1l-17.7-39.8c-0.3-0.7,0-1.5,0.7-1.9l7.4-3.3c0.7-0.3,1.5,0,1.9,0.7l17.7,39.8
		c0.3,0.7,0,1.5-0.7,1.9l-7.4,3.3C411.7,507.1,410.8,506.8,410.5,506.1z"/>
</g>
<g id="Page-1_3_">
	<g id="_x30_70---Album">
		<path id="Shape_73_" class="st12" d="M191.9,418.7l-51.5-138c-0.6-1.6-2.4-2.4-4-1.8L10.2,326c-8.1,3-12.2,12-9.2,20.2l52.6,140.9
			L191.9,418.7z"/>
		<path id="Shape_72_" class="st13" d="M72.7,466.6c-1.6,0.6-3.4-0.2-4-1.8L21.5,338.5c-0.6-1.6,0.2-3.4,1.8-4
			c1.6-0.6,3.4,0.2,4,1.8l47.1,126.2C75.1,464.2,74.3,466,72.7,466.6z"/>
		<path id="Rectangle-path" class="st14" d="M41.3,337.8l88.1-32.9c1.6-0.6,3.4,0.2,4,1.8l28.5,76.3c0.6,1.6-0.2,3.4-1.8,4L72,420
			c-1.6,0.6-3.4-0.2-4-1.8l-28.5-76.3C38.9,340.2,39.7,338.4,41.3,337.8z"/>
		<circle id="Oval" class="st12" cx="110.7" cy="335.4" r="9.4"/>
		<path id="Shape_71_" class="st15" d="M153.8,406.2l-64.6,24.1c-1.6,0.6-3.4-0.2-4-1.8c-0.6-1.6,0.2-3.4,1.8-4l64.6-24.1
			c1.6-0.6,3.4,0.2,4,1.8C156.3,403.8,155.4,405.6,153.8,406.2z"/>
		<path id="Shape_70_" class="st15" d="M149.4,421.2l-47,17.5c-1.6,0.6-3.4-0.2-4-1.8c-0.6-1.6,0.2-3.4,1.8-4l47-17.5
			c1.6-0.6,3.4,0.2,4,1.8C151.8,418.8,151,420.6,149.4,421.2z"/>
		<path id="Shape_69_" class="st16" d="M114.7,374.5l-16.3,35.7L72,420c-1.6,0.6-3.4-0.2-4-1.8l-3.6-9.5L77,370.3
			c3.2,1.7,7,1.9,10.3,0.5s6-4,7.2-7.5L114.7,374.5z"/>
		<path id="Shape_68_" class="st17" d="M156.4,368.4l5.5,14.7c0.6,1.6-0.2,3.4-1.8,4l-61.6,23l16.3-35.7l3.4-7.5
			c3.4,2.3,7.7,2.9,11.5,1.5s6.7-4.7,7.7-8.6L156.4,368.4z"/>
		<path id="Shape_67_" class="st18" d="M62.8,466.9L189,419.8l9.9,26.4c0.6,1.6-0.2,3.4-1.8,4l-123.3,46c-8.1,3-17.1-1.1-20.2-9.2
			S54.7,470,62.8,466.9z"/>
		<path id="Shape_66_" class="st19" d="M86.9,478l-14.7,5.5c-1.6,0.6-3.4-0.2-4-1.8c-0.6-1.6,0.2-3.4,1.8-4l14.7-5.5
			c1.6-0.6,3.4,0.2,4,1.8C89.4,475.6,88.6,477.4,86.9,478z"/>
		<path id="Shape_65_" class="st19" d="M172.1,446.2l-73.4,27.4c-1.6,0.6-3.4-0.2-4-1.8c-0.6-1.6,0.2-3.4,1.8-4l73.4-27.4
			c1.6-0.6,3.4,0.2,4,1.8S173.7,445.6,172.1,446.2z"/>
		<path id="Shape_64_" class="st20" d="M189,419.8l9.9,26.4c0.6,1.6-0.2,3.4-1.8,4l-8.8,3.3l-11-29.4L189,419.8z"/>
		<path id="Shape_63_" class="st13" d="M201,452.1l-123.3,46c-9.7,3.6-20.6-1.3-24.2-11c-3.6-9.7,1.3-20.6,11-24.2l123.3-46
			c1.6-0.6,3.4,0.2,4,1.8c0.6,1.6-0.2,3.4-1.8,4l-123.3,46c-6.5,2.4-9.8,9.6-7.4,16.1c2.4,6.5,9.6,9.8,16.1,7.4l123.3-46
			c1.6-0.6,3.4,0.2,4,1.8C203.5,449.7,202.7,451.5,201,452.1z"/>
		<g>
			<path id="Shape_62_" class="st21" d="M94.5,363.3c-1.2,3.4-3.8,6.1-7.2,7.5c-3.4,1.3-7.1,1.1-10.3-0.5l3.4-10.5
				c0.3-0.9,1-1.6,1.8-1.9s1.8-0.3,2.7,0.2L94.5,363.3z"/>
			<path id="Shape_61_" class="st21" d="M137.4,359.8c-1,4-3.9,7.2-7.7,8.6c-3.8,1.4-8.1,0.9-11.5-1.5l4.7-10.4
				c0.7-1.6,2.6-2.3,4.2-1.6L137.4,359.8z"/>
		</g>
	</g>
</g>
<g>
	<g>
		<path class="st2" d="M71.1,437.1l-41.4,5.3c-3.2,0.4-6.1-1.9-6.5-5l-3.7-29.2c-0.4-3.2,1.9-6.1,5-6.5l41.4-5.3
			c3.2-0.4,6.1,1.9,6.5,5l3.7,29.2C76.5,433.8,74.3,436.7,71.1,437.1z"/>
	</g>
	<g>
		<path class="st2" d="M98.3,403.2l-42.7,5.4c-0.8,0.1-1.5-0.5-1.6-1.2l-1-7.9c-0.1-0.8,0.5-1.5,1.2-1.6l42.7-5.4
			c0.8-0.1,1.5,0.5,1.6,1.2l1,7.9C99.6,402.4,99,403.1,98.3,403.2z"/>
	</g>
	<g>
		<path class="st2" d="M100.1,417.5l-42.7,5.4c-0.8,0.1-1.5-0.5-1.6-1.2l-1-7.9c-0.1-0.8,0.5-1.5,1.2-1.6l42.7-5.4
			c0.8-0.1,1.5,0.5,1.6,1.2l1,7.9C101.4,416.7,100.9,417.4,100.1,417.5z"/>
	</g>
	<g>
		<path class="st2" d="M102.1,433.2l-42.7,5.4c-0.8,0.1-1.5-0.5-1.6-1.2l-1-7.9c-0.1-0.8,0.5-1.5,1.2-1.6l42.7-5.4
			c0.8-0.1,1.5,0.5,1.6,1.2l1,7.9C103.4,432.4,102.9,433.1,102.1,433.2z"/>
	</g>
	<g>
		<defs>
			<polygon id="SVGID_1_" points="10.1,370.7 21.7,403.2 33.2,418.7 22.1,437.4 -5.3,424.7 -2.3,394.2 			"/>
		</defs>
		<clipPath id="SVGID_2_">
			<use xlink:href="#SVGID_1_"  style="overflow:visible;"/>
		</clipPath>
		<g class="st22">
			<g>
				<path class="st2" d="M25.3,430.7L24.9,414c-2.2,0.1-3.6-0.3-4.2-1.2c-2.3-3.3-0.9-13.4,1.9-21.3c1.5-1.2,6.1-4.1,17.3-6.9
					L36,368.3C15.6,373.3,9.7,380,8.1,382.7l-0.6,1.2c-1.6,4.2-9.4,25.8-0.5,38.5C9.7,426.3,15.1,431,25.3,430.7z"/>
			</g>
		</g>
	</g>
</g>
</svg>
